<svg width="311" height="126" viewBox="0 0 311 126" fill="none" xmlns="http://www.w3.org/2000/svg">
    <path d="M172.462 38.946C173.143 39.086 173.661 39.3613 174.016 39.772C174.371 40.1733 174.548 40.7007 174.548 41.354C174.548 42.2033 174.245 42.8567 173.638 43.314C173.041 43.7713 172.159 44 170.992 44H166.652V34.2H170.726C171.771 34.2 172.588 34.4147 173.176 34.844C173.764 35.2733 174.058 35.894 174.058 36.706C174.058 37.2567 173.918 37.7233 173.638 38.106C173.358 38.4793 172.966 38.7593 172.462 38.946ZM167.674 38.638H170.67C171.426 38.638 172.005 38.484 172.406 38.176C172.817 37.868 173.022 37.42 173.022 36.832C173.022 36.244 172.817 35.796 172.406 35.488C172.005 35.18 171.426 35.026 170.67 35.026H167.674V38.638ZM170.992 43.174C172.681 43.174 173.526 42.544 173.526 41.284C173.526 40.052 172.681 39.436 170.992 39.436H167.674V43.174H170.992ZM183.34 40.626H177.18C177.236 41.3913 177.53 42.012 178.062 42.488C178.594 42.9547 179.266 43.188 180.078 43.188C180.536 43.188 180.956 43.1087 181.338 42.95C181.721 42.782 182.052 42.5393 182.332 42.222L182.892 42.866C182.566 43.258 182.155 43.5567 181.66 43.762C181.175 43.9673 180.638 44.07 180.05 44.07C179.294 44.07 178.622 43.9113 178.034 43.594C177.456 43.2673 177.003 42.8193 176.676 42.25C176.35 41.6807 176.186 41.0367 176.186 40.318C176.186 39.5993 176.34 38.9553 176.648 38.386C176.966 37.8167 177.395 37.3733 177.936 37.056C178.487 36.7387 179.103 36.58 179.784 36.58C180.466 36.58 181.077 36.7387 181.618 37.056C182.16 37.3733 182.584 37.8167 182.892 38.386C183.2 38.946 183.354 39.59 183.354 40.318L183.34 40.626ZM179.784 37.434C179.075 37.434 178.478 37.6627 177.992 38.12C177.516 38.568 177.246 39.156 177.18 39.884H182.402C182.337 39.156 182.062 38.568 181.576 38.12C181.1 37.6627 180.503 37.434 179.784 37.434ZM191.424 36.636V44H190.43V37.518H186.902L186.804 39.338C186.73 40.8687 186.552 42.0447 186.272 42.866C185.992 43.6873 185.493 44.098 184.774 44.098C184.578 44.098 184.34 44.0607 184.06 43.986L184.13 43.132C184.298 43.1693 184.415 43.188 184.48 43.188C184.863 43.188 185.152 43.0107 185.348 42.656C185.544 42.3013 185.675 41.8627 185.74 41.34C185.806 40.8173 185.862 40.1267 185.908 39.268L186.034 36.636H191.424ZM194.25 36.636H195.244V42.488L200.158 36.636H201.04V44H200.046V38.148L195.146 44H194.25V36.636ZM206.563 40.724H204.883V44H203.889V36.636H204.883V39.87H206.577L209.167 36.636H210.245L207.347 40.206L210.455 44H209.279L206.563 40.724ZM214.802 44.07C214.092 44.07 213.453 43.9113 212.884 43.594C212.314 43.2673 211.866 42.8193 211.54 42.25C211.213 41.6807 211.05 41.0367 211.05 40.318C211.05 39.5993 211.213 38.9553 211.54 38.386C211.866 37.8167 212.314 37.3733 212.884 37.056C213.453 36.7387 214.092 36.58 214.802 36.58C215.511 36.58 216.15 36.7387 216.72 37.056C217.289 37.3733 217.732 37.8167 218.05 38.386C218.376 38.9553 218.54 39.5993 218.54 40.318C218.54 41.0367 218.376 41.6807 218.05 42.25C217.732 42.8193 217.289 43.2673 216.72 43.594C216.15 43.9113 215.511 44.07 214.802 44.07ZM214.802 43.188C215.324 43.188 215.791 43.0713 216.202 42.838C216.622 42.5953 216.948 42.2547 217.182 41.816C217.415 41.3773 217.532 40.878 217.532 40.318C217.532 39.758 217.415 39.2587 217.182 38.82C216.948 38.3813 216.622 38.0453 216.202 37.812C215.791 37.5693 215.324 37.448 214.802 37.448C214.279 37.448 213.808 37.5693 213.388 37.812C212.977 38.0453 212.65 38.3813 212.408 38.82C212.174 39.2587 212.058 39.758 212.058 40.318C212.058 40.878 212.174 41.3773 212.408 41.816C212.65 42.2547 212.977 42.5953 213.388 42.838C213.808 43.0713 214.279 43.188 214.802 43.188ZM226.643 36.636V44H225.649V37.518H222.121L222.023 39.338C221.948 40.8687 221.771 42.0447 221.491 42.866C221.211 43.6873 220.712 44.098 219.993 44.098C219.797 44.098 219.559 44.0607 219.279 43.986L219.349 43.132C219.517 43.1693 219.634 43.188 219.699 43.188C220.082 43.188 220.371 43.0107 220.567 42.656C220.763 42.3013 220.894 41.8627 220.959 41.34C221.024 40.8173 221.08 40.1267 221.127 39.268L221.253 36.636H226.643ZM235.909 40.626H229.749C229.805 41.3913 230.099 42.012 230.631 42.488C231.163 42.9547 231.835 43.188 232.647 43.188C233.104 43.188 233.524 43.1087 233.907 42.95C234.289 42.782 234.621 42.5393 234.901 42.222L235.461 42.866C235.134 43.258 234.723 43.5567 234.229 43.762C233.743 43.9673 233.207 44.07 232.619 44.07C231.863 44.07 231.191 43.9113 230.603 43.594C230.024 43.2673 229.571 42.8193 229.245 42.25C228.918 41.6807 228.755 41.0367 228.755 40.318C228.755 39.5993 228.909 38.9553 229.217 38.386C229.534 37.8167 229.963 37.3733 230.505 37.056C231.055 36.7387 231.671 36.58 232.353 36.58C233.034 36.58 233.645 36.7387 234.187 37.056C234.728 37.3733 235.153 37.8167 235.461 38.386C235.769 38.946 235.923 39.59 235.923 40.318L235.909 40.626ZM232.353 37.434C231.643 37.434 231.046 37.6627 230.561 38.12C230.085 38.568 229.814 39.156 229.749 39.884H234.971C234.905 39.156 234.63 38.568 234.145 38.12C233.669 37.6627 233.071 37.434 232.353 37.434ZM244.731 36.636V44H243.737V37.518H239.117V44H238.123V36.636H244.731ZM247.557 36.636H248.551V39.898H253.185V36.636H254.179V44H253.185V40.752H248.551V44H247.557V36.636ZM260.042 44.07C259.333 44.07 258.693 43.9113 258.124 43.594C257.555 43.2673 257.107 42.8193 256.78 42.25C256.453 41.6807 256.29 41.0367 256.29 40.318C256.29 39.5993 256.453 38.9553 256.78 38.386C257.107 37.8167 257.555 37.3733 258.124 37.056C258.693 36.7387 259.333 36.58 260.042 36.58C260.751 36.58 261.391 36.7387 261.96 37.056C262.529 37.3733 262.973 37.8167 263.29 38.386C263.617 38.9553 263.78 39.5993 263.78 40.318C263.78 41.0367 263.617 41.6807 263.29 42.25C262.973 42.8193 262.529 43.2673 261.96 43.594C261.391 43.9113 260.751 44.07 260.042 44.07ZM260.042 43.188C260.565 43.188 261.031 43.0713 261.442 42.838C261.862 42.5953 262.189 42.2547 262.422 41.816C262.655 41.3773 262.772 40.878 262.772 40.318C262.772 39.758 262.655 39.2587 262.422 38.82C262.189 38.3813 261.862 38.0453 261.442 37.812C261.031 37.5693 260.565 37.448 260.042 37.448C259.519 37.448 259.048 37.5693 258.628 37.812C258.217 38.0453 257.891 38.3813 257.648 38.82C257.415 39.2587 257.298 39.758 257.298 40.318C257.298 40.878 257.415 41.3773 257.648 41.816C257.891 42.2547 258.217 42.5953 258.628 42.838C259.048 43.0713 259.519 43.188 260.042 43.188ZM166.75 58.2L169.536 62.078L172.308 58.2H173.526L170.18 62.904L173.792 68H172.574L169.536 63.786L166.498 68H165.308L168.906 62.946L165.56 58.2H166.75ZM178.134 68.07C177.424 68.07 176.785 67.9113 176.216 67.594C175.646 67.2673 175.198 66.8193 174.872 66.25C174.545 65.6807 174.382 65.0367 174.382 64.318C174.382 63.5993 174.545 62.9553 174.872 62.386C175.198 61.8167 175.646 61.3733 176.216 61.056C176.785 60.7387 177.424 60.58 178.134 60.58C178.843 60.58 179.482 60.7387 180.052 61.056C180.621 61.3733 181.064 61.8167 181.382 62.386C181.708 62.9553 181.872 63.5993 181.872 64.318C181.872 65.0367 181.708 65.6807 181.382 66.25C181.064 66.8193 180.621 67.2673 180.052 67.594C179.482 67.9113 178.843 68.07 178.134 68.07ZM178.134 67.188C178.656 67.188 179.123 67.0713 179.534 66.838C179.954 66.5953 180.28 66.2547 180.514 65.816C180.747 65.3773 180.864 64.878 180.864 64.318C180.864 63.758 180.747 63.2587 180.514 62.82C180.28 62.3813 179.954 62.0453 179.534 61.812C179.123 61.5693 178.656 61.448 178.134 61.448C177.611 61.448 177.14 61.5693 176.72 61.812C176.309 62.0453 175.982 62.3813 175.74 62.82C175.506 63.2587 175.39 63.758 175.39 64.318C175.39 64.878 175.506 65.3773 175.74 65.816C175.982 66.2547 176.309 66.5953 176.72 66.838C177.14 67.0713 177.611 67.188 178.134 67.188ZM187.79 60.58C188.481 60.58 189.106 60.7387 189.666 61.056C190.226 61.364 190.665 61.8027 190.982 62.372C191.299 62.9413 191.458 63.59 191.458 64.318C191.458 65.0553 191.299 65.7087 190.982 66.278C190.665 66.8473 190.226 67.2907 189.666 67.608C189.115 67.916 188.49 68.07 187.79 68.07C187.193 68.07 186.651 67.9487 186.166 67.706C185.69 67.454 185.298 67.09 184.99 66.614V70.716H183.996V60.636H184.948V62.092C185.247 61.6067 185.639 61.2333 186.124 60.972C186.619 60.7107 187.174 60.58 187.79 60.58ZM187.72 67.188C188.233 67.188 188.7 67.0713 189.12 66.838C189.54 66.5953 189.867 66.2547 190.1 65.816C190.343 65.3773 190.464 64.878 190.464 64.318C190.464 63.758 190.343 63.2633 190.1 62.834C189.867 62.3953 189.54 62.0547 189.12 61.812C188.7 61.5693 188.233 61.448 187.72 61.448C187.197 61.448 186.726 61.5693 186.306 61.812C185.895 62.0547 185.569 62.3953 185.326 62.834C185.093 63.2633 184.976 63.758 184.976 64.318C184.976 64.878 185.093 65.3773 185.326 65.816C185.569 66.2547 185.895 66.5953 186.306 66.838C186.726 67.0713 187.197 67.188 187.72 67.188ZM196.632 68.07C195.922 68.07 195.283 67.9113 194.714 67.594C194.144 67.2673 193.696 66.8193 193.37 66.25C193.043 65.6807 192.88 65.0367 192.88 64.318C192.88 63.5993 193.043 62.9553 193.37 62.386C193.696 61.8167 194.144 61.3733 194.714 61.056C195.283 60.7387 195.922 60.58 196.632 60.58C197.341 60.58 197.98 60.7387 198.55 61.056C199.119 61.3733 199.562 61.8167 199.88 62.386C200.206 62.9553 200.37 63.5993 200.37 64.318C200.37 65.0367 200.206 65.6807 199.88 66.25C199.562 66.8193 199.119 67.2673 198.55 67.594C197.98 67.9113 197.341 68.07 196.632 68.07ZM196.632 67.188C197.154 67.188 197.621 67.0713 198.032 66.838C198.452 66.5953 198.778 66.2547 199.012 65.816C199.245 65.3773 199.362 64.878 199.362 64.318C199.362 63.758 199.245 63.2587 199.012 62.82C198.778 62.3813 198.452 62.0453 198.032 61.812C197.621 61.5693 197.154 61.448 196.632 61.448C196.109 61.448 195.638 61.5693 195.218 61.812C194.807 62.0453 194.48 62.3813 194.238 62.82C194.004 63.2587 193.888 63.758 193.888 64.318C193.888 64.878 194.004 65.3773 194.238 65.816C194.48 66.2547 194.807 66.5953 195.218 66.838C195.638 67.0713 196.109 67.188 196.632 67.188ZM212.658 60.636V68H202.494V60.636H203.488V67.132H207.1V60.636H208.094V67.132H211.664V60.636H212.658ZM218.534 68.07C217.825 68.07 217.185 67.9113 216.616 67.594C216.047 67.2673 215.599 66.8193 215.272 66.25C214.945 65.6807 214.782 65.0367 214.782 64.318C214.782 63.5993 214.945 62.9553 215.272 62.386C215.599 61.8167 216.047 61.3733 216.616 61.056C217.185 60.7387 217.825 60.58 218.534 60.58C219.243 60.58 219.883 60.7387 220.452 61.056C221.021 61.3733 221.465 61.8167 221.782 62.386C222.109 62.9553 222.272 63.5993 222.272 64.318C222.272 65.0367 222.109 65.6807 221.782 66.25C221.465 66.8193 221.021 67.2673 220.452 67.594C219.883 67.9113 219.243 68.07 218.534 68.07ZM218.534 67.188C219.057 67.188 219.523 67.0713 219.934 66.838C220.354 66.5953 220.681 66.2547 220.914 65.816C221.147 65.3773 221.264 64.878 221.264 64.318C221.264 63.758 221.147 63.2587 220.914 62.82C220.681 62.3813 220.354 62.0453 219.934 61.812C219.523 61.5693 219.057 61.448 218.534 61.448C218.011 61.448 217.54 61.5693 217.12 61.812C216.709 62.0453 216.383 62.3813 216.14 62.82C215.907 63.2587 215.79 63.758 215.79 64.318C215.79 64.878 215.907 65.3773 216.14 65.816C216.383 66.2547 216.709 66.5953 217.12 66.838C217.54 67.0713 218.011 67.188 218.534 67.188ZM174.352 82.2L169.9 90.446C169.583 91.034 169.209 91.4727 168.78 91.762C168.36 92.042 167.898 92.182 167.394 92.182C167.021 92.182 166.619 92.0933 166.19 91.916L166.484 91.076C166.82 91.2067 167.128 91.272 167.408 91.272C168.052 91.272 168.579 90.922 168.99 90.222L169.27 89.746L165.294 82.2H166.4L169.816 88.836L173.316 82.2H174.352ZM182.619 91.132V93.778H181.681V92H175.087V93.778H174.149V91.132H174.569C175.064 91.104 175.4 90.74 175.577 90.04C175.755 89.34 175.876 88.36 175.941 87.1L176.039 84.636H181.471V91.132H182.619ZM176.851 87.156C176.805 88.2013 176.716 89.0647 176.585 89.746C176.455 90.418 176.221 90.88 175.885 91.132H180.477V85.518H176.935L176.851 87.156ZM187.595 92.07C186.885 92.07 186.246 91.9113 185.677 91.594C185.107 91.2673 184.659 90.8193 184.333 90.25C184.006 89.6807 183.843 89.0367 183.843 88.318C183.843 87.5993 184.006 86.9553 184.333 86.386C184.659 85.8167 185.107 85.3733 185.677 85.056C186.246 84.7387 186.885 84.58 187.595 84.58C188.304 84.58 188.943 84.7387 189.513 85.056C190.082 85.3733 190.525 85.8167 190.843 86.386C191.169 86.9553 191.333 87.5993 191.333 88.318C191.333 89.0367 191.169 89.6807 190.843 90.25C190.525 90.8193 190.082 91.2673 189.513 91.594C188.943 91.9113 188.304 92.07 187.595 92.07ZM187.595 91.188C188.117 91.188 188.584 91.0713 188.995 90.838C189.415 90.5953 189.741 90.2547 189.975 89.816C190.208 89.3773 190.325 88.878 190.325 88.318C190.325 87.758 190.208 87.2587 189.975 86.82C189.741 86.3813 189.415 86.0453 188.995 85.812C188.584 85.5693 188.117 85.448 187.595 85.448C187.072 85.448 186.601 85.5693 186.181 85.812C185.77 86.0453 185.443 86.3813 185.201 86.82C184.967 87.2587 184.851 87.758 184.851 88.318C184.851 88.878 184.967 89.3773 185.201 89.816C185.443 90.2547 185.77 90.5953 186.181 90.838C186.601 91.0713 187.072 91.188 187.595 91.188ZM198.147 88.192C199.146 88.4253 199.645 89.0273 199.645 89.998C199.645 90.642 199.407 91.1367 198.931 91.482C198.455 91.8273 197.746 92 196.803 92H193.457V84.636H196.705C197.545 84.636 198.203 84.7993 198.679 85.126C199.155 85.4527 199.393 85.9193 199.393 86.526C199.393 86.9273 199.281 87.2727 199.057 87.562C198.842 87.842 198.539 88.052 198.147 88.192ZM194.423 87.912H196.635C197.204 87.912 197.638 87.8047 197.937 87.59C198.245 87.3753 198.399 87.0627 198.399 86.652C198.399 86.2413 198.245 85.9333 197.937 85.728C197.638 85.5227 197.204 85.42 196.635 85.42H194.423V87.912ZM196.761 91.216C197.396 91.216 197.872 91.1133 198.189 90.908C198.506 90.7027 198.665 90.3807 198.665 89.942C198.665 89.5033 198.52 89.1813 198.231 88.976C197.942 88.7613 197.484 88.654 196.859 88.654H194.423V91.216H196.761ZM207.995 84.636V92H207.001V85.518H203.473L203.375 87.338C203.3 88.8687 203.123 90.0447 202.843 90.866C202.563 91.6873 202.063 92.098 201.345 92.098C201.149 92.098 200.911 92.0607 200.631 91.986L200.701 91.132C200.869 91.1693 200.985 91.188 201.051 91.188C201.433 91.188 201.723 91.0107 201.919 90.656C202.115 90.3013 202.245 89.8627 202.311 89.34C202.376 88.8173 202.432 88.1267 202.479 87.268L202.605 84.636H207.995ZM217.26 88.626H211.1C211.156 89.3913 211.45 90.012 211.982 90.488C212.514 90.9547 213.186 91.188 213.998 91.188C214.456 91.188 214.876 91.1087 215.258 90.95C215.641 90.782 215.972 90.5393 216.252 90.222L216.812 90.866C216.486 91.258 216.075 91.5567 215.58 91.762C215.095 91.9673 214.558 92.07 213.97 92.07C213.214 92.07 212.542 91.9113 211.954 91.594C211.376 91.2673 210.923 90.8193 210.596 90.25C210.27 89.6807 210.106 89.0367 210.106 88.318C210.106 87.5993 210.26 86.9553 210.568 86.386C210.886 85.8167 211.315 85.3733 211.856 85.056C212.407 84.7387 213.023 84.58 213.704 84.58C214.386 84.58 214.997 84.7387 215.538 85.056C216.08 85.3733 216.504 85.8167 216.812 86.386C217.12 86.946 217.274 87.59 217.274 88.318L217.26 88.626ZM213.704 85.434C212.995 85.434 212.398 85.6627 211.912 86.12C211.436 86.568 211.166 87.156 211.1 87.884H216.322C216.257 87.156 215.982 86.568 215.496 86.12C215.02 85.6627 214.423 85.434 213.704 85.434ZM224.326 85.518H221.54V92H220.546V85.518H217.76V84.636H224.326V85.518ZM230.454 88.192C231.452 88.4253 231.952 89.0273 231.952 89.998C231.952 90.642 231.714 91.1367 231.238 91.482C230.762 91.8273 230.052 92 229.11 92H225.764V84.636H229.012C229.852 84.636 230.51 84.7993 230.986 85.126C231.462 85.4527 231.7 85.9193 231.7 86.526C231.7 86.9273 231.588 87.2727 231.364 87.562C231.149 87.842 230.846 88.052 230.454 88.192ZM226.73 87.912H228.942C229.511 87.912 229.945 87.8047 230.244 87.59C230.552 87.3753 230.706 87.0627 230.706 86.652C230.706 86.2413 230.552 85.9333 230.244 85.728C229.945 85.5227 229.511 85.42 228.942 85.42H226.73V87.912ZM229.068 91.216C229.702 91.216 230.178 91.1133 230.496 90.908C230.813 90.7027 230.972 90.3807 230.972 89.942C230.972 89.5033 230.827 89.1813 230.538 88.976C230.248 88.7613 229.791 88.654 229.166 88.654H226.73V91.216H229.068ZM237.319 92.07C236.61 92.07 235.971 91.9113 235.401 91.594C234.832 91.2673 234.384 90.8193 234.057 90.25C233.731 89.6807 233.567 89.0367 233.567 88.318C233.567 87.5993 233.731 86.9553 234.057 86.386C234.384 85.8167 234.832 85.3733 235.401 85.056C235.971 84.7387 236.61 84.58 237.319 84.58C238.029 84.58 238.668 84.7387 239.237 85.056C239.807 85.3733 240.25 85.8167 240.567 86.386C240.894 86.9553 241.057 87.5993 241.057 88.318C241.057 89.0367 240.894 89.6807 240.567 90.25C240.25 90.8193 239.807 91.2673 239.237 91.594C238.668 91.9113 238.029 92.07 237.319 92.07ZM237.319 91.188C237.842 91.188 238.309 91.0713 238.719 90.838C239.139 90.5953 239.466 90.2547 239.699 89.816C239.933 89.3773 240.049 88.878 240.049 88.318C240.049 87.758 239.933 87.2587 239.699 86.82C239.466 86.3813 239.139 86.0453 238.719 85.812C238.309 85.5693 237.842 85.448 237.319 85.448C236.797 85.448 236.325 85.5693 235.905 85.812C235.495 86.0453 235.168 86.3813 234.925 86.82C234.692 87.2587 234.575 87.758 234.575 88.318C234.575 88.878 234.692 89.3773 234.925 89.816C235.168 90.2547 235.495 90.5953 235.905 90.838C236.325 91.0713 236.797 91.188 237.319 91.188ZM246.976 84.58C247.666 84.58 248.292 84.7387 248.852 85.056C249.412 85.364 249.85 85.8027 250.168 86.372C250.485 86.9413 250.644 87.59 250.644 88.318C250.644 89.0553 250.485 89.7087 250.168 90.278C249.85 90.8473 249.412 91.2907 248.852 91.608C248.301 91.916 247.676 92.07 246.976 92.07C246.378 92.07 245.837 91.9487 245.352 91.706C244.876 91.454 244.484 91.09 244.176 90.614V94.716H243.182V84.636H244.134V86.092C244.432 85.6067 244.824 85.2333 245.31 84.972C245.804 84.7107 246.36 84.58 246.976 84.58ZM246.906 91.188C247.419 91.188 247.886 91.0713 248.306 90.838C248.726 90.5953 249.052 90.2547 249.286 89.816C249.528 89.3773 249.65 88.878 249.65 88.318C249.65 87.758 249.528 87.2633 249.286 86.834C249.052 86.3953 248.726 86.0547 248.306 85.812C247.886 85.5693 247.419 85.448 246.906 85.448C246.383 85.448 245.912 85.5693 245.492 85.812C245.081 86.0547 244.754 86.3953 244.512 86.834C244.278 87.2633 244.162 87.758 244.162 88.318C244.162 88.878 244.278 89.3773 244.512 89.816C244.754 90.2547 245.081 90.5953 245.492 90.838C245.912 91.0713 246.383 91.188 246.906 91.188ZM252.779 84.636H253.773V90.488L258.687 84.636H259.569V92H258.575V86.148L253.675 92H252.779V84.636ZM267.598 85.518H264.812V92H263.818V85.518H261.032V84.636H267.598V85.518ZM275.133 88.626H268.973C269.029 89.3913 269.323 90.012 269.855 90.488C270.387 90.9547 271.059 91.188 271.871 91.188C272.329 91.188 272.749 91.1087 273.131 90.95C273.514 90.782 273.845 90.5393 274.125 90.222L274.685 90.866C274.359 91.258 273.948 91.5567 273.453 91.762C272.968 91.9673 272.431 92.07 271.843 92.07C271.087 92.07 270.415 91.9113 269.827 91.594C269.249 91.2673 268.796 90.8193 268.469 90.25C268.143 89.6807 267.979 89.0367 267.979 88.318C267.979 87.5993 268.133 86.9553 268.441 86.386C268.759 85.8167 269.188 85.3733 269.729 85.056C270.28 84.7387 270.896 84.58 271.577 84.58C272.259 84.58 272.87 84.7387 273.411 85.056C273.953 85.3733 274.377 85.8167 274.685 86.386C274.993 86.946 275.147 87.59 275.147 88.318L275.133 88.626ZM271.577 85.434C270.868 85.434 270.271 85.6627 269.785 86.12C269.309 86.568 269.039 87.156 268.973 87.884H274.195C274.13 87.156 273.855 86.568 273.369 86.12C272.893 85.6627 272.296 85.434 271.577 85.434ZM283.217 84.636V92H282.223V85.518H278.695L278.597 87.338C278.523 88.8687 278.345 90.0447 278.065 90.866C277.785 91.6873 277.286 92.098 276.567 92.098C276.371 92.098 276.133 92.0607 275.853 91.986L275.923 91.132C276.091 91.1693 276.208 91.188 276.273 91.188C276.656 91.188 276.945 91.0107 277.141 90.656C277.337 90.3013 277.468 89.8627 277.533 89.34C277.599 88.8173 277.655 88.1267 277.701 87.268L277.827 84.636H283.217ZM289.207 87.24C290.131 87.2493 290.831 87.4547 291.307 87.856C291.792 88.2573 292.035 88.836 292.035 89.592C292.035 90.376 291.774 90.978 291.251 91.398C290.738 91.818 289.991 92.0233 289.011 92.014L286.043 92V84.636H287.037V87.212L289.207 87.24ZM288.955 91.258C289.636 91.2673 290.15 91.132 290.495 90.852C290.85 90.5627 291.027 90.1427 291.027 89.592C291.027 89.0507 290.854 88.6493 290.509 88.388C290.164 88.1267 289.646 87.9913 288.955 87.982L287.037 87.954V91.23L288.955 91.258ZM293.932 84.636H294.926V87.898H299.56V84.636H300.554V92H299.56V88.752H294.926V92H293.932V84.636ZM306.417 92.07C305.708 92.07 305.068 91.9113 304.499 91.594C303.93 91.2673 303.482 90.8193 303.155 90.25C302.828 89.6807 302.665 89.0367 302.665 88.318C302.665 87.5993 302.828 86.9553 303.155 86.386C303.482 85.8167 303.93 85.3733 304.499 85.056C305.068 84.7387 305.708 84.58 306.417 84.58C307.126 84.58 307.766 84.7387 308.335 85.056C308.904 85.3733 309.348 85.8167 309.665 86.386C309.992 86.9553 310.155 87.5993 310.155 88.318C310.155 89.0367 309.992 89.6807 309.665 90.25C309.348 90.8193 308.904 91.2673 308.335 91.594C307.766 91.9113 307.126 92.07 306.417 92.07ZM306.417 91.188C306.94 91.188 307.406 91.0713 307.817 90.838C308.237 90.5953 308.564 90.2547 308.797 89.816C309.03 89.3773 309.147 88.878 309.147 88.318C309.147 87.758 309.03 87.2587 308.797 86.82C308.564 86.3813 308.237 86.0453 307.817 85.812C307.406 85.5693 306.94 85.448 306.417 85.448C305.894 85.448 305.423 85.5693 305.003 85.812C304.592 86.0453 304.266 86.3813 304.023 86.82C303.79 87.2587 303.673 87.758 303.673 88.318C303.673 88.878 303.79 89.3773 304.023 89.816C304.266 90.2547 304.592 90.5953 305.003 90.838C305.423 91.0713 305.894 91.188 306.417 91.188ZM170.32 106.2C171.571 106.2 172.551 106.499 173.26 107.096C173.969 107.693 174.324 108.515 174.324 109.56C174.324 110.605 173.969 111.427 173.26 112.024C172.551 112.612 171.571 112.906 170.32 112.906H167.688V116H166.652V106.2H170.32ZM170.292 111.996C171.263 111.996 172.005 111.786 172.518 111.366C173.031 110.937 173.288 110.335 173.288 109.56C173.288 108.767 173.031 108.16 172.518 107.74C172.005 107.311 171.263 107.096 170.292 107.096H167.688V111.996H170.292ZM178.682 108.58C179.644 108.58 180.381 108.823 180.894 109.308C181.408 109.784 181.664 110.493 181.664 111.436V116H180.712V114.852C180.488 115.235 180.157 115.533 179.718 115.748C179.289 115.963 178.776 116.07 178.178 116.07C177.357 116.07 176.704 115.874 176.218 115.482C175.733 115.09 175.49 114.572 175.49 113.928C175.49 113.303 175.714 112.799 176.162 112.416C176.62 112.033 177.343 111.842 178.332 111.842H180.67V111.394C180.67 110.759 180.493 110.279 180.138 109.952C179.784 109.616 179.266 109.448 178.584 109.448C178.118 109.448 177.67 109.527 177.24 109.686C176.811 109.835 176.442 110.045 176.134 110.316L175.686 109.574C176.06 109.257 176.508 109.014 177.03 108.846C177.553 108.669 178.104 108.58 178.682 108.58ZM178.332 115.286C178.892 115.286 179.373 115.16 179.774 114.908C180.176 114.647 180.474 114.273 180.67 113.788V112.584H178.36C177.1 112.584 176.47 113.023 176.47 113.9C176.47 114.329 176.634 114.67 176.96 114.922C177.287 115.165 177.744 115.286 178.332 115.286ZM187.744 112.164C188.267 112.285 188.668 112.495 188.948 112.794C189.237 113.093 189.382 113.457 189.382 113.886C189.382 114.315 189.233 114.698 188.934 115.034C188.645 115.37 188.248 115.631 187.744 115.818C187.24 115.995 186.685 116.084 186.078 116.084C185.546 116.084 185.023 116.009 184.51 115.86C183.997 115.701 183.549 115.473 183.166 115.174L183.502 114.432C183.838 114.684 184.23 114.88 184.678 115.02C185.126 115.16 185.579 115.23 186.036 115.23C186.717 115.23 187.273 115.104 187.702 114.852C188.141 114.591 188.36 114.241 188.36 113.802C188.36 113.41 188.183 113.107 187.828 112.892C187.473 112.668 186.988 112.556 186.372 112.556H185.112V111.828H186.316C186.867 111.828 187.31 111.725 187.646 111.52C187.982 111.305 188.15 111.021 188.15 110.666C188.15 110.274 187.959 109.966 187.576 109.742C187.203 109.518 186.713 109.406 186.106 109.406C185.313 109.406 184.529 109.607 183.754 110.008L183.474 109.238C184.351 108.781 185.261 108.552 186.204 108.552C186.764 108.552 187.268 108.636 187.716 108.804C188.173 108.963 188.528 109.191 188.78 109.49C189.041 109.789 189.172 110.134 189.172 110.526C189.172 110.899 189.041 111.231 188.78 111.52C188.528 111.809 188.183 112.024 187.744 112.164ZM194.677 116.07C193.967 116.07 193.328 115.911 192.759 115.594C192.189 115.267 191.741 114.819 191.415 114.25C191.088 113.681 190.925 113.037 190.925 112.318C190.925 111.599 191.088 110.955 191.415 110.386C191.741 109.817 192.189 109.373 192.759 109.056C193.328 108.739 193.967 108.58 194.677 108.58C195.386 108.58 196.025 108.739 196.595 109.056C197.164 109.373 197.607 109.817 197.925 110.386C198.251 110.955 198.415 111.599 198.415 112.318C198.415 113.037 198.251 113.681 197.925 114.25C197.607 114.819 197.164 115.267 196.595 115.594C196.025 115.911 195.386 116.07 194.677 116.07ZM194.677 115.188C195.199 115.188 195.666 115.071 196.077 114.838C196.497 114.595 196.823 114.255 197.057 113.816C197.29 113.377 197.407 112.878 197.407 112.318C197.407 111.758 197.29 111.259 197.057 110.82C196.823 110.381 196.497 110.045 196.077 109.812C195.666 109.569 195.199 109.448 194.677 109.448C194.154 109.448 193.683 109.569 193.263 109.812C192.852 110.045 192.525 110.381 192.283 110.82C192.049 111.259 191.933 111.758 191.933 112.318C191.933 112.878 192.049 113.377 192.283 113.816C192.525 114.255 192.852 114.595 193.263 114.838C193.683 115.071 194.154 115.188 194.677 115.188ZM206.097 108.636V116H205.103V112.934C204.254 113.307 203.418 113.494 202.597 113.494C201.71 113.494 201.02 113.293 200.525 112.892C200.03 112.481 199.783 111.87 199.783 111.058V108.636H200.777V111.002C200.777 111.553 200.954 111.973 201.309 112.262C201.664 112.542 202.154 112.682 202.779 112.682C203.47 112.682 204.244 112.5 205.103 112.136V108.636H206.097ZM211.454 108.58C212.415 108.58 213.153 108.823 213.666 109.308C214.179 109.784 214.436 110.493 214.436 111.436V116H213.484V114.852C213.26 115.235 212.929 115.533 212.49 115.748C212.061 115.963 211.547 116.07 210.95 116.07C210.129 116.07 209.475 115.874 208.99 115.482C208.505 115.09 208.262 114.572 208.262 113.928C208.262 113.303 208.486 112.799 208.934 112.416C209.391 112.033 210.115 111.842 211.104 111.842H213.442V111.394C213.442 110.759 213.265 110.279 212.91 109.952C212.555 109.616 212.037 109.448 211.356 109.448C210.889 109.448 210.441 109.527 210.012 109.686C209.583 109.835 209.214 110.045 208.906 110.316L208.458 109.574C208.831 109.257 209.279 109.014 209.802 108.846C210.325 108.669 210.875 108.58 211.454 108.58ZM211.104 115.286C211.664 115.286 212.145 115.16 212.546 114.908C212.947 114.647 213.246 114.273 213.442 113.788V112.584H211.132C209.872 112.584 209.242 113.023 209.242 113.9C209.242 114.329 209.405 114.67 209.732 114.922C210.059 115.165 210.516 115.286 211.104 115.286ZM220.876 108.58C221.567 108.58 222.192 108.739 222.752 109.056C223.312 109.364 223.751 109.803 224.068 110.372C224.385 110.941 224.544 111.59 224.544 112.318C224.544 113.055 224.385 113.709 224.068 114.278C223.751 114.847 223.312 115.291 222.752 115.608C222.201 115.916 221.576 116.07 220.876 116.07C220.279 116.07 219.737 115.949 219.252 115.706C218.776 115.454 218.384 115.09 218.076 114.614V118.716H217.082V108.636H218.034V110.092C218.333 109.607 218.725 109.233 219.21 108.972C219.705 108.711 220.26 108.58 220.876 108.58ZM220.806 115.188C221.319 115.188 221.786 115.071 222.206 114.838C222.626 114.595 222.953 114.255 223.186 113.816C223.429 113.377 223.55 112.878 223.55 112.318C223.55 111.758 223.429 111.263 223.186 110.834C222.953 110.395 222.626 110.055 222.206 109.812C221.786 109.569 221.319 109.448 220.806 109.448C220.283 109.448 219.812 109.569 219.392 109.812C218.981 110.055 218.655 110.395 218.412 110.834C218.179 111.263 218.062 111.758 218.062 112.318C218.062 112.878 218.179 113.377 218.412 113.816C218.655 114.255 218.981 114.595 219.392 114.838C219.812 115.071 220.283 115.188 220.806 115.188ZM229.718 116.07C229.008 116.07 228.369 115.911 227.8 115.594C227.23 115.267 226.782 114.819 226.456 114.25C226.129 113.681 225.966 113.037 225.966 112.318C225.966 111.599 226.129 110.955 226.456 110.386C226.782 109.817 227.23 109.373 227.8 109.056C228.369 108.739 229.008 108.58 229.718 108.58C230.427 108.58 231.066 108.739 231.636 109.056C232.205 109.373 232.648 109.817 232.966 110.386C233.292 110.955 233.456 111.599 233.456 112.318C233.456 113.037 233.292 113.681 232.966 114.25C232.648 114.819 232.205 115.267 231.636 115.594C231.066 115.911 230.427 116.07 229.718 116.07ZM229.718 115.188C230.24 115.188 230.707 115.071 231.118 114.838C231.538 114.595 231.864 114.255 232.098 113.816C232.331 113.377 232.448 112.878 232.448 112.318C232.448 111.758 232.331 111.259 232.098 110.82C231.864 110.381 231.538 110.045 231.118 109.812C230.707 109.569 230.24 109.448 229.718 109.448C229.195 109.448 228.724 109.569 228.304 109.812C227.893 110.045 227.566 110.381 227.324 110.82C227.09 111.259 226.974 111.758 226.974 112.318C226.974 112.878 227.09 113.377 227.324 113.816C227.566 114.255 227.893 114.595 228.304 114.838C228.724 115.071 229.195 115.188 229.718 115.188ZM240.27 112.192C241.269 112.425 241.768 113.027 241.768 113.998C241.768 114.642 241.53 115.137 241.054 115.482C240.578 115.827 239.869 116 238.926 116H235.58V108.636H238.828C239.668 108.636 240.326 108.799 240.802 109.126C241.278 109.453 241.516 109.919 241.516 110.526C241.516 110.927 241.404 111.273 241.18 111.562C240.965 111.842 240.662 112.052 240.27 112.192ZM236.546 111.912H238.758C239.327 111.912 239.761 111.805 240.06 111.59C240.368 111.375 240.522 111.063 240.522 110.652C240.522 110.241 240.368 109.933 240.06 109.728C239.761 109.523 239.327 109.42 238.758 109.42H236.546V111.912ZM238.884 115.216C239.519 115.216 239.995 115.113 240.312 114.908C240.629 114.703 240.788 114.381 240.788 113.942C240.788 113.503 240.643 113.181 240.354 112.976C240.065 112.761 239.607 112.654 238.982 112.654H236.546V115.216H238.884ZM246.632 108.58C247.593 108.58 248.33 108.823 248.844 109.308C249.357 109.784 249.614 110.493 249.614 111.436V116H248.662V114.852C248.438 115.235 248.106 115.533 247.668 115.748C247.238 115.963 246.725 116.07 246.128 116.07C245.306 116.07 244.653 115.874 244.168 115.482C243.682 115.09 243.44 114.572 243.44 113.928C243.44 113.303 243.664 112.799 244.112 112.416C244.569 112.033 245.292 111.842 246.282 111.842H248.62V111.394C248.62 110.759 248.442 110.279 248.088 109.952C247.733 109.616 247.215 109.448 246.534 109.448C246.067 109.448 245.619 109.527 245.19 109.686C244.76 109.835 244.392 110.045 244.084 110.316L243.636 109.574C244.009 109.257 244.457 109.014 244.98 108.846C245.502 108.669 246.053 108.58 246.632 108.58ZM246.282 115.286C246.842 115.286 247.322 115.16 247.724 114.908C248.125 114.647 248.424 114.273 248.62 113.788V112.584H246.31C245.05 112.584 244.42 113.023 244.42 113.9C244.42 114.329 244.583 114.67 244.91 114.922C245.236 115.165 245.694 115.286 246.282 115.286ZM252.26 108.636H253.254V111.898H257.888V108.636H258.882V116H257.888V112.752H253.254V116H252.26V108.636Z"
          fill="#1F2041" fill-opacity="0.75"/>
    <circle cx="155" cy="87" r="5" fill="url(#paint0_linear_18384_181)"/>
    <circle cx="155" cy="111" r="5" fill="url(#paint1_linear_18384_181)"/>
    <circle cx="155" cy="63" r="5" fill="url(#paint2_linear_18384_181)"/>
    <circle cx="155" cy="39" r="5" fill="url(#paint3_linear_18384_181)"/>
    <mask id="mask0_18384_181" style="mask-type:alpha" maskUnits="userSpaceOnUse" x="0" y="0" width="59" height="121">
        <path d="M0 0H59V121H0V0Z" fill="#C4C4C4"/>
    </mask>
    <g mask="url(#mask0_18384_181)">
        <circle cx="60" cy="61" r="58" stroke="url(#paint4_linear_18384_181)" stroke-width="4"/>
    </g>
    <mask id="mask1_18384_181" style="mask-type:alpha" maskUnits="userSpaceOnUse" x="61" y="1" width="59" height="59">
        <path d="M61 1H120V60H61V1Z" fill="#C4C4C4"/>
    </mask>
    <g mask="url(#mask1_18384_181)">
        <circle cx="60" cy="61" r="58" stroke="url(#paint5_linear_18384_181)" stroke-width="4"/>
    </g>
    <mask id="mask2_18384_181" style="mask-type:alpha" maskUnits="userSpaceOnUse" x="61" y="62" width="59" height="59">
        <path d="M120 62V121H61L61 62L120 62Z" fill="#C4C4C4"/>
    </mask>
    <g mask="url(#mask2_18384_181)">
        <circle cx="60" cy="61" r="58" transform="rotate(90 60 61)" stroke="url(#paint6_linear_18384_181)"
                stroke-width="4"/>
    </g>
    <path d="M50.6482 55.832V59H37.9522V56.48L44.4322 50.36C45.1202 49.704 45.5842 49.144 45.8242 48.68C46.0642 48.2 46.1842 47.728 46.1842 47.264C46.1842 46.592 45.9522 46.08 45.4882 45.728C45.0402 45.36 44.3762 45.176 43.4962 45.176C42.7602 45.176 42.0962 45.32 41.5042 45.608C40.9122 45.88 40.4162 46.296 40.0162 46.856L37.1842 45.032C37.8402 44.056 38.7442 43.296 39.8962 42.752C41.0482 42.192 42.3682 41.912 43.8562 41.912C45.1042 41.912 46.1922 42.12 47.1202 42.536C48.0642 42.936 48.7922 43.512 49.3042 44.264C49.8322 45 50.0962 45.872 50.0962 46.88C50.0962 47.792 49.9042 48.648 49.5202 49.448C49.1362 50.248 48.3922 51.16 47.2882 52.184L43.4242 55.832H50.6482ZM60.2935 48.464C61.3655 48.464 62.3415 48.68 63.2215 49.112C64.1015 49.544 64.7975 50.16 65.3095 50.96C65.8215 51.744 66.0775 52.656 66.0775 53.696C66.0775 54.816 65.7975 55.8 65.2375 56.648C64.6775 57.496 63.9095 58.152 62.9335 58.616C61.9735 59.064 60.9015 59.288 59.7175 59.288C57.3655 59.288 55.5255 58.568 54.1975 57.128C52.8695 55.688 52.2055 53.632 52.2055 50.96C52.2055 49.056 52.5655 47.424 53.2855 46.064C54.0055 44.704 55.0055 43.672 56.2855 42.968C57.5815 42.264 59.0775 41.912 60.7735 41.912C61.6695 41.912 62.5255 42.016 63.3415 42.224C64.1735 42.416 64.8775 42.696 65.4535 43.064L64.0135 45.92C63.1815 45.36 62.1335 45.08 60.8695 45.08C59.4455 45.08 58.3175 45.496 57.4855 46.328C56.6535 47.16 56.2055 48.368 56.1415 49.952C57.1335 48.96 58.5175 48.464 60.2935 48.464ZM59.5015 56.384C60.3335 56.384 61.0055 56.16 61.5175 55.712C62.0455 55.264 62.3095 54.656 62.3095 53.888C62.3095 53.12 62.0455 52.512 61.5175 52.064C61.0055 51.6 60.3175 51.368 59.4535 51.368C58.6055 51.368 57.9095 51.608 57.3655 52.088C56.8215 52.552 56.5495 53.152 56.5495 53.888C56.5495 54.624 56.8135 55.224 57.3415 55.688C57.8695 56.152 58.5895 56.384 59.5015 56.384ZM74.6868 59.288C73.2948 59.288 72.0548 58.944 70.9668 58.256C69.8788 57.568 69.0228 56.576 68.3988 55.28C67.7908 53.968 67.4868 52.408 67.4868 50.6C67.4868 48.792 67.7908 47.24 68.3988 45.944C69.0228 44.632 69.8788 43.632 70.9668 42.944C72.0548 42.256 73.2948 41.912 74.6868 41.912C76.0788 41.912 77.3188 42.256 78.4068 42.944C79.4948 43.632 80.3428 44.632 80.9508 45.944C81.5748 47.24 81.8868 48.792 81.8868 50.6C81.8868 52.408 81.5748 53.968 80.9508 55.28C80.3428 56.576 79.4948 57.568 78.4068 58.256C77.3188 58.944 76.0788 59.288 74.6868 59.288ZM74.6868 56C75.7108 56 76.5108 55.56 77.0868 54.68C77.6788 53.8 77.9748 52.44 77.9748 50.6C77.9748 48.76 77.6788 47.4 77.0868 46.52C76.5108 45.64 75.7108 45.2 74.6868 45.2C73.6788 45.2 72.8788 45.64 72.2868 46.52C71.7108 47.4 71.4228 48.76 71.4228 50.6C71.4228 52.44 71.7108 53.8 72.2868 54.68C72.8788 55.56 73.6788 56 74.6868 56Z"
          fill="#BC9CFF"/>
    <path d="M35.2666 71.184H31.2706L31.2826 78H29.3506V69.6H35.2786L35.2666 71.184ZM39.6165 78.144C38.7445 78.144 37.9565 77.956 37.2525 77.58C36.5565 77.204 36.0085 76.688 35.6085 76.032C35.2165 75.368 35.0205 74.624 35.0205 73.8C35.0205 72.976 35.2165 72.236 35.6085 71.58C36.0085 70.916 36.5565 70.396 37.2525 70.02C37.9565 69.644 38.7445 69.456 39.6165 69.456C40.4885 69.456 41.2725 69.644 41.9685 70.02C42.6645 70.396 43.2125 70.916 43.6125 71.58C44.0125 72.236 44.2125 72.976 44.2125 73.8C44.2125 74.624 44.0125 75.368 43.6125 76.032C43.2125 76.688 42.6645 77.204 41.9685 77.58C41.2725 77.956 40.4885 78.144 39.6165 78.144ZM39.6165 76.488C40.1125 76.488 40.5605 76.376 40.9605 76.152C41.3605 75.92 41.6725 75.6 41.8965 75.192C42.1285 74.784 42.2445 74.32 42.2445 73.8C42.2445 73.28 42.1285 72.816 41.8965 72.408C41.6725 72 41.3605 71.684 40.9605 71.46C40.5605 71.228 40.1125 71.112 39.6165 71.112C39.1205 71.112 38.6725 71.228 38.2725 71.46C37.8725 71.684 37.5565 72 37.3245 72.408C37.1005 72.816 36.9885 73.28 36.9885 73.8C36.9885 74.32 37.1005 74.784 37.3245 75.192C37.5565 75.6 37.8725 75.92 38.2725 76.152C38.6725 76.376 39.1205 76.488 39.6165 76.488ZM52.9636 69.6V78H51.0436V71.184H48.1636L48.1036 72.936C48.0636 74.128 47.9676 75.096 47.8156 75.84C47.6636 76.576 47.4076 77.144 47.0476 77.544C46.6956 77.936 46.1996 78.132 45.5596 78.132C45.2956 78.132 44.9756 78.088 44.5996 78L44.7196 76.356C44.8236 76.388 44.9396 76.404 45.0676 76.404C45.5316 76.404 45.8556 76.132 46.0396 75.588C46.2236 75.036 46.3396 74.176 46.3876 73.008L46.5076 69.6H52.9636ZM59.0696 78.144C58.1976 78.144 57.4096 77.956 56.7056 77.58C56.0096 77.204 55.4616 76.688 55.0616 76.032C54.6696 75.368 54.4736 74.624 54.4736 73.8C54.4736 72.976 54.6696 72.236 55.0616 71.58C55.4616 70.916 56.0096 70.396 56.7056 70.02C57.4096 69.644 58.1976 69.456 59.0696 69.456C59.9416 69.456 60.7256 69.644 61.4216 70.02C62.1176 70.396 62.6656 70.916 63.0656 71.58C63.4656 72.236 63.6656 72.976 63.6656 73.8C63.6656 74.624 63.4656 75.368 63.0656 76.032C62.6656 76.688 62.1176 77.204 61.4216 77.58C60.7256 77.956 59.9416 78.144 59.0696 78.144ZM59.0696 76.488C59.5656 76.488 60.0136 76.376 60.4136 76.152C60.8136 75.92 61.1256 75.6 61.3496 75.192C61.5816 74.784 61.6976 74.32 61.6976 73.8C61.6976 73.28 61.5816 72.816 61.3496 72.408C61.1256 72 60.8136 71.684 60.4136 71.46C60.0136 71.228 59.5656 71.112 59.0696 71.112C58.5736 71.112 58.1256 71.228 57.7256 71.46C57.3256 71.684 57.0096 72 56.7776 72.408C56.5536 72.816 56.4416 73.28 56.4416 73.8C56.4416 74.32 56.5536 74.784 56.7776 75.192C57.0096 75.6 57.3256 75.92 57.7256 76.152C58.1256 76.376 58.5736 76.488 59.0696 76.488ZM69.1351 78.144C68.2791 78.144 67.5031 77.96 66.8071 77.592C66.1191 77.216 65.5751 76.7 65.1751 76.044C64.7831 75.38 64.5871 74.632 64.5871 73.8C64.5871 72.968 64.7831 72.224 65.1751 71.568C65.5751 70.904 66.1191 70.388 66.8071 70.02C67.5031 69.644 68.2831 69.456 69.1471 69.456C69.8751 69.456 70.5311 69.584 71.1151 69.84C71.7071 70.096 72.2031 70.464 72.6031 70.944L71.3551 72.096C70.7871 71.44 70.0831 71.112 69.2431 71.112C68.7231 71.112 68.2591 71.228 67.8511 71.46C67.4431 71.684 67.1231 72 66.8911 72.408C66.6671 72.816 66.5551 73.28 66.5551 73.8C66.5551 74.32 66.6671 74.784 66.8911 75.192C67.1231 75.6 67.4431 75.92 67.8511 76.152C68.2591 76.376 68.7231 76.488 69.2431 76.488C70.0831 76.488 70.7871 76.156 71.3551 75.492L72.6031 76.644C72.2031 77.132 71.7071 77.504 71.1151 77.76C70.5231 78.016 69.8631 78.144 69.1351 78.144ZM77.7024 78.144C76.8304 78.144 76.0424 77.956 75.3384 77.58C74.6424 77.204 74.0944 76.688 73.6944 76.032C73.3024 75.368 73.1064 74.624 73.1064 73.8C73.1064 72.976 73.3024 72.236 73.6944 71.58C74.0944 70.916 74.6424 70.396 75.3384 70.02C76.0424 69.644 76.8304 69.456 77.7024 69.456C78.5744 69.456 79.3584 69.644 80.0544 70.02C80.7504 70.396 81.2984 70.916 81.6984 71.58C82.0984 72.236 82.2984 72.976 82.2984 73.8C82.2984 74.624 82.0984 75.368 81.6984 76.032C81.2984 76.688 80.7504 77.204 80.0544 77.58C79.3584 77.956 78.5744 78.144 77.7024 78.144ZM77.7024 76.488C78.1984 76.488 78.6464 76.376 79.0464 76.152C79.4464 75.92 79.7584 75.6 79.9824 75.192C80.2144 74.784 80.3304 74.32 80.3304 73.8C80.3304 73.28 80.2144 72.816 79.9824 72.408C79.7584 72 79.4464 71.684 79.0464 71.46C78.6464 71.228 78.1984 71.112 77.7024 71.112C77.2064 71.112 76.7584 71.228 76.3584 71.46C75.9584 71.684 75.6424 72 75.4104 72.408C75.1864 72.816 75.0744 73.28 75.0744 73.8C75.0744 74.32 75.1864 74.784 75.4104 75.192C75.6424 75.6 75.9584 75.92 76.3584 76.152C76.7584 76.376 77.2064 76.488 77.7024 76.488ZM89.616 73.62C90.128 73.772 90.52 74.02 90.792 74.364C91.064 74.708 91.2 75.132 91.2 75.636C91.2 76.38 90.916 76.96 90.348 77.376C89.788 77.792 88.984 78 87.936 78H83.796V69.6H87.708C88.684 69.6 89.444 69.788 89.988 70.164C90.532 70.54 90.804 71.076 90.804 71.772C90.804 72.188 90.7 72.556 90.492 72.876C90.284 73.188 89.992 73.436 89.616 73.62ZM85.728 73.08H87.54C87.964 73.08 88.284 72.996 88.5 72.828C88.716 72.652 88.824 72.396 88.824 72.06C88.824 71.732 88.712 71.48 88.488 71.304C88.272 71.128 87.956 71.04 87.54 71.04H85.728V73.08ZM87.864 76.56C88.776 76.56 89.232 76.2 89.232 75.48C89.232 74.784 88.776 74.436 87.864 74.436H85.728V76.56H87.864Z"
          fill="#BC9CFF"/>
    <defs>
        <linearGradient id="paint0_linear_18384_181" x1="155" y1="82" x2="155" y2="92" gradientUnits="userSpaceOnUse">
            <stop stop-color="#BC9CFF"/>
            <stop offset="1" stop-color="#8BA4F9"/>
        </linearGradient>
        <linearGradient id="paint1_linear_18384_181" x1="155" y1="106" x2="155" y2="116" gradientUnits="userSpaceOnUse">
            <stop stop-color="#919191"/>
            <stop offset="1" stop-color="#3D4975"/>
        </linearGradient>
        <linearGradient id="paint2_linear_18384_181" x1="155" y1="58" x2="155" y2="68" gradientUnits="userSpaceOnUse">
            <stop stop-color="#6FCF97"/>
            <stop offset="1" stop-color="#66D2EA"/>
        </linearGradient>
        <linearGradient id="paint3_linear_18384_181" x1="155" y1="34" x2="155" y2="44" gradientUnits="userSpaceOnUse">
            <stop stop-color="#FFE39C"/>
            <stop offset="1" stop-color="#FFBA9C"/>
        </linearGradient>
        <linearGradient id="paint4_linear_18384_181" x1="60" y1="1" x2="60" y2="121" gradientUnits="userSpaceOnUse">
            <stop stop-color="#FFE39C"/>
            <stop offset="1" stop-color="#FFBA9C"/>
        </linearGradient>
        <linearGradient id="paint5_linear_18384_181" x1="60" y1="1" x2="60" y2="121" gradientUnits="userSpaceOnUse">
            <stop stop-color="#BC9CFF"/>
            <stop offset="1" stop-color="#8BA4F9"/>
        </linearGradient>
        <linearGradient id="paint6_linear_18384_181" x1="60" y1="1" x2="60" y2="121" gradientUnits="userSpaceOnUse">
            <stop stop-color="#6FCF97"/>
            <stop offset="1" stop-color="#66D2EA"/>
        </linearGradient>
    </defs>
</svg>
