<svg width="52" height="19" viewBox="0 0 52 19" fill="none" xmlns="http://www.w3.org/2000/svg">
<g filter="url(#filter0_d_18447_142)">
<ellipse cx="9.50195" cy="4.64146" rx="3.75" ry="3.74693" fill="white"/>
</g>
<g filter="url(#filter1_d_18447_142)">
<path d="M24.002 4.64146C24.002 6.4343 22.5473 7.88839 20.752 7.88839C18.9566 7.88839 17.502 6.4343 17.502 4.64146C17.502 2.84862 18.9566 1.39453 20.752 1.39453C22.5473 1.39453 24.002 2.84862 24.002 4.64146Z" stroke="white"/>
</g>
<g filter="url(#filter2_d_18447_142)">
<path d="M35.252 4.64146C35.252 6.4343 33.7973 7.88839 32.002 7.88839C30.2066 7.88839 28.752 6.4343 28.752 4.64146C28.752 2.84862 30.2066 1.39453 32.002 1.39453C33.7973 1.39453 35.252 2.84862 35.252 4.64146Z" stroke="white"/>
</g>
<g filter="url(#filter3_d_18447_142)">
<path d="M46.502 4.64146C46.502 6.4343 45.0473 7.88839 43.252 7.88839C41.4566 7.88839 40.002 6.4343 40.002 4.64146C40.002 2.84862 41.4566 1.39453 43.252 1.39453C45.0473 1.39453 46.502 2.84862 46.502 4.64146Z" stroke="white"/>
</g>
<defs>
<filter id="filter0_d_18447_142" x="0.751953" y="0.894531" width="17.5" height="17.4941" filterUnits="userSpaceOnUse" color-interpolation-filters="sRGB">
<feFlood flood-opacity="0" result="BackgroundImageFix"/>
<feColorMatrix in="SourceAlpha" type="matrix" values="0 0 0 0 0 0 0 0 0 0 0 0 0 0 0 0 0 0 127 0" result="hardAlpha"/>
<feOffset dy="5"/>
<feGaussianBlur stdDeviation="2.5"/>
<feColorMatrix type="matrix" values="0 0 0 0 0.121569 0 0 0 0 0.12549 0 0 0 0 0.254902 0 0 0 0.3 0"/>
<feBlend mode="normal" in2="BackgroundImageFix" result="effect1_dropShadow_18447_142"/>
<feBlend mode="normal" in="SourceGraphic" in2="effect1_dropShadow_18447_142" result="shape"/>
</filter>
<filter id="filter1_d_18447_142" x="12.002" y="0.894531" width="17.5" height="17.4941" filterUnits="userSpaceOnUse" color-interpolation-filters="sRGB">
<feFlood flood-opacity="0" result="BackgroundImageFix"/>
<feColorMatrix in="SourceAlpha" type="matrix" values="0 0 0 0 0 0 0 0 0 0 0 0 0 0 0 0 0 0 127 0" result="hardAlpha"/>
<feOffset dy="5"/>
<feGaussianBlur stdDeviation="2.5"/>
<feColorMatrix type="matrix" values="0 0 0 0 0.121569 0 0 0 0 0.12549 0 0 0 0 0.254902 0 0 0 0.3 0"/>
<feBlend mode="normal" in2="BackgroundImageFix" result="effect1_dropShadow_18447_142"/>
<feBlend mode="normal" in="SourceGraphic" in2="effect1_dropShadow_18447_142" result="shape"/>
</filter>
<filter id="filter2_d_18447_142" x="23.252" y="0.894531" width="17.5" height="17.4941" filterUnits="userSpaceOnUse" color-interpolation-filters="sRGB">
<feFlood flood-opacity="0" result="BackgroundImageFix"/>
<feColorMatrix in="SourceAlpha" type="matrix" values="0 0 0 0 0 0 0 0 0 0 0 0 0 0 0 0 0 0 127 0" result="hardAlpha"/>
<feOffset dy="5"/>
<feGaussianBlur stdDeviation="2.5"/>
<feColorMatrix type="matrix" values="0 0 0 0 0.121569 0 0 0 0 0.12549 0 0 0 0 0.254902 0 0 0 0.3 0"/>
<feBlend mode="normal" in2="BackgroundImageFix" result="effect1_dropShadow_18447_142"/>
<feBlend mode="normal" in="SourceGraphic" in2="effect1_dropShadow_18447_142" result="shape"/>
</filter>
<filter id="filter3_d_18447_142" x="34.502" y="0.894531" width="17.5" height="17.4941" filterUnits="userSpaceOnUse" color-interpolation-filters="sRGB">
<feFlood flood-opacity="0" result="BackgroundImageFix"/>
<feColorMatrix in="SourceAlpha" type="matrix" values="0 0 0 0 0 0 0 0 0 0 0 0 0 0 0 0 0 0 127 0" result="hardAlpha"/>
<feOffset dy="5"/>
<feGaussianBlur stdDeviation="2.5"/>
<feColorMatrix type="matrix" values="0 0 0 0 0.121569 0 0 0 0 0.12549 0 0 0 0 0.254902 0 0 0 0.3 0"/>
<feBlend mode="normal" in2="BackgroundImageFix" result="effect1_dropShadow_18447_142"/>
<feBlend mode="normal" in="SourceGraphic" in2="effect1_dropShadow_18447_142" result="shape"/>
</filter>
</defs>
</svg>
